<svg xmlns="http://www.w3.org/2000/svg" xmlns:xlink="http://www.w3.org/1999/xlink" viewBox="59.359 99.30799999999999 210.16299999999998 68.285" width="210.16299999999998" height="68.285">
<polygon points="0,0 0,340 558,340 558,0" fill="#ffffff00" stroke="none" />
<path d="M 63.500,148.000 C 69.562,148.566 69.500,148.000 75.500,148.000" stroke-width="4.141" stroke="#000000" fill="none" stroke-linecap="round"></path><path d="M 75.500,148.000 C 80.149,147.450 80.062,147.566 84.500,146.000" stroke-width="3.201" stroke="#000000" fill="none" stroke-linecap="round"></path><path d="M 84.500,146.000 C 89.368,144.583 89.149,144.450 93.500,142.000" stroke-width="2.947" stroke="#000000" fill="none" stroke-linecap="round"></path><path d="M 93.500,142.000 C 97.250,139.250 97.368,139.583 100.500,136.000" stroke-width="2.926" stroke="#000000" fill="none" stroke-linecap="round"></path><path d="M 100.500,136.000 C 104.246,132.863 103.750,132.750 106.500,129.000" stroke-width="2.876" stroke="#000000" fill="none" stroke-linecap="round"></path><path d="M 106.500,129.000 C 107.044,126.508 107.746,126.863 107.500,124.000" stroke-width="3.262" stroke="#000000" fill="none" stroke-linecap="round"></path><path d="M 107.500,124.000 C 108.298,121.025 108.044,121.008 108.500,118.000" stroke-width="3.261" stroke="#000000" fill="none" stroke-linecap="round"></path><path d="M 108.500,118.000 C 109.126,110.251 108.798,113.525 108.500,109.000" stroke-width="3.449" stroke="#000000" fill="none" stroke-linecap="round"></path><path d="M 108.500,109.000 C 106.260,111.599 108.126,108.251 106.500,114.000" stroke-width="4.005" stroke="#000000" fill="none" stroke-linecap="round"></path><path d="M 106.500,114.000 C 107.269,118.594 106.760,116.599 109.500,119.000" stroke-width="3.889" stroke="#000000" fill="none" stroke-linecap="round"></path><path d="M 109.500,119.000 C 114.275,118.534 112.769,119.594 117.500,116.000" stroke-width="3.849" stroke="#000000" fill="none" stroke-linecap="round"></path><path d="M 117.500,116.000 C 122.300,106.600 121.275,113.034 123.500,108.000" stroke-width="3.581" stroke="#000000" fill="none" stroke-linecap="round"></path><path d="M 123.500,108.000 C 123.500,115.500 125.300,110.100 123.500,123.000" stroke-width="3.967" stroke="#000000" fill="none" stroke-linecap="round"></path><path d="M 123.500,123.000 C 123.184,132.514 123.500,132.500 123.500,142.000" stroke-width="2.469" stroke="#000000" fill="none" stroke-linecap="round"></path><path d="M 123.500,142.000 C 124.260,147.488 123.684,147.514 124.500,153.000" stroke-width="2.645" stroke="#000000" fill="none" stroke-linecap="round"></path><path d="M 124.500,153.000 C 124.149,159.035 124.760,158.988 124.500,165.000" stroke-width="2.593" stroke="#000000" fill="none" stroke-linecap="round"></path><path d="M 88.500,154.000 C 92.067,154.542 92.000,154.000 95.500,154.000" stroke-width="4.198" stroke="#000000" fill="none" stroke-linecap="round"></path><path d="M 95.500,154.000 C 101.529,152.608 101.567,153.042 107.500,151.000" stroke-width="2.939" stroke="#000000" fill="none" stroke-linecap="round"></path><path d="M 107.500,151.000 C 114.669,149.459 114.529,149.108 121.500,147.000" stroke-width="2.505" stroke="#000000" fill="none" stroke-linecap="round"></path><path d="M 121.500,147.000 C 127.198,144.872 127.169,144.959 132.500,142.000" stroke-width="2.592" stroke="#000000" fill="none" stroke-linecap="round"></path><path d="M 132.500,142.000 C 139.512,138.579 139.198,138.372 145.500,134.000" stroke-width="2.433" stroke="#000000" fill="none" stroke-linecap="round"></path><path d="M 145.500,134.000 C 148.096,131.808 148.012,132.079 149.500,129.000" stroke-width="2.932" stroke="#000000" fill="none" stroke-linecap="round"></path><path d="M 149.500,129.000 C 150.990,125.569 151.096,125.808 151.500,122.000" stroke-width="3.422" stroke="#000000" fill="none" stroke-linecap="round"></path><path d="M 151.500,122.000 C 152.025,118.415 151.990,118.569 151.500,115.000" stroke-width="3.254" stroke="#000000" fill="none" stroke-linecap="round"></path><path d="M 151.500,115.000 C 151.152,111.597 151.025,111.915 149.500,109.000" stroke-width="3.614" stroke="#000000" fill="none" stroke-linecap="round"></path><path d="M 149.500,109.000 C 147.457,105.613 147.652,106.097 144.500,104.000" stroke-width="3.838" stroke="#000000" fill="none" stroke-linecap="round"></path><path d="M 144.500,104.000 C 141.127,102.124 141.957,102.613 138.500,103.000" stroke-width="3.823" stroke="#000000" fill="none" stroke-linecap="round"></path><path d="M 138.500,103.000 C 134.618,104.975 135.127,104.124 132.500,108.000" stroke-width="3.692" stroke="#000000" fill="none" stroke-linecap="round"></path><path d="M 132.500,108.000 C 131.837,110.476 131.118,109.975 131.500,113.000" stroke-width="3.492" stroke="#000000" fill="none" stroke-linecap="round"></path><path d="M 131.500,113.000 C 130.751,117.988 130.837,117.976 130.500,123.000" stroke-width="2.999" stroke="#000000" fill="none" stroke-linecap="round"></path><path d="M 130.500,123.000 C 130.292,128.007 130.251,127.988 130.500,133.000" stroke-width="2.834" stroke="#000000" fill="none" stroke-linecap="round"></path><path d="M 130.500,133.000 C 130.555,140.071 130.792,140.007 131.500,147.000" stroke-width="2.565" stroke="#000000" fill="none" stroke-linecap="round"></path><path d="M 131.500,147.000 C 132.368,151.038 132.055,151.071 133.500,155.000" stroke-width="2.835" stroke="#000000" fill="none" stroke-linecap="round"></path><path d="M 133.500,155.000 C 134.199,158.138 134.368,158.038 135.500,161.000" stroke-width="3.164" stroke="#000000" fill="none" stroke-linecap="round"></path><path d="M 160.500,138.000 C 156.971,137.711 157.000,138.000 153.500,138.000" stroke-width="4.353" stroke="#000000" fill="none" stroke-linecap="round"></path><path d="M 153.500,138.000 C 150.717,137.892 150.971,138.211 148.500,139.000" stroke-width="4.024" stroke="#000000" fill="none" stroke-linecap="round"></path><path d="M 148.500,139.000 C 144.526,140.436 145.717,140.392 143.500,143.000" stroke-width="4.224" stroke="#000000" fill="none" stroke-linecap="round"></path><path d="M 143.500,143.000 C 143.479,146.192 142.526,145.436 144.500,149.000" stroke-width="4.237" stroke="#000000" fill="none" stroke-linecap="round"></path><path d="M 144.500,149.000 C 145.341,152.321 145.479,151.692 147.500,154.000" stroke-width="4.090" stroke="#000000" fill="none" stroke-linecap="round"></path><path d="M 147.500,154.000 C 150.421,155.487 149.841,155.821 153.500,156.000" stroke-width="4.101" stroke="#000000" fill="none" stroke-linecap="round"></path><path d="M 153.500,156.000 C 156.926,157.029 156.421,156.487 159.500,156.000" stroke-width="4.043" stroke="#000000" fill="none" stroke-linecap="round"></path><path d="M 159.500,156.000 C 162.185,154.367 161.926,155.029 163.500,152.000" stroke-width="4.117" stroke="#000000" fill="none" stroke-linecap="round"></path><path d="M 163.500,152.000 C 164.289,149.529 164.685,149.867 164.500,147.000" stroke-width="4.094" stroke="#000000" fill="none" stroke-linecap="round"></path><path d="M 164.500,147.000 C 163.622,139.780 164.789,143.529 164.500,140.000" stroke-width="4.171" stroke="#000000" fill="none" stroke-linecap="round"></path><path d="M 164.500,140.000 C 166.610,143.949 165.622,140.280 168.500,148.000" stroke-width="4.345" stroke="#000000" fill="none" stroke-linecap="round"></path><path d="M 168.500,148.000 C 169.905,151.544 170.110,151.449 171.500,155.000" stroke-width="3.398" stroke="#000000" fill="none" stroke-linecap="round"></path><path d="M 171.500,155.000 C 172.895,158.058 172.905,158.044 174.500,161.000" stroke-width="3.236" stroke="#000000" fill="none" stroke-linecap="round"></path><path d="M 184.500,140.000 C 184.500,143.500 184.500,143.500 184.500,147.000" stroke-width="4.368" stroke="#000000" fill="none" stroke-linecap="round"></path><path d="M 184.500,147.000 C 183.973,150.101 184.500,150.000 184.500,153.000" stroke-width="3.960" stroke="#000000" fill="none" stroke-linecap="round"></path><path d="M 184.500,153.000 C 186.027,158.236 184.973,155.601 186.500,158.000" stroke-width="4.142" stroke="#000000" fill="none" stroke-linecap="round"></path><path d="M 186.500,158.000 C 186.500,155.000 187.027,157.736 186.500,152.000" stroke-width="4.333" stroke="#000000" fill="none" stroke-linecap="round"></path><path d="M 186.500,152.000 C 185.973,148.899 186.500,149.000 186.500,146.000" stroke-width="3.964" stroke="#000000" fill="none" stroke-linecap="round"></path><path d="M 186.500,146.000 C 186.820,141.480 186.973,143.399 188.500,141.000" stroke-width="4.033" stroke="#000000" fill="none" stroke-linecap="round"></path><path d="M 188.500,141.000 C 191.680,141.921 190.320,140.480 193.500,144.000" stroke-width="4.276" stroke="#000000" fill="none" stroke-linecap="round"></path><path d="M 193.500,144.000 C 194.730,146.432 195.180,145.921 195.500,149.000" stroke-width="3.983" stroke="#000000" fill="none" stroke-linecap="round"></path><path d="M 195.500,149.000 C 195.567,154.000 196.230,151.432 196.500,154.000" stroke-width="4.161" stroke="#000000" fill="none" stroke-linecap="round"></path><path d="M 196.500,154.000 C 198.433,151.667 197.567,154.000 199.500,149.000" stroke-width="4.375" stroke="#000000" fill="none" stroke-linecap="round"></path><path d="M 199.500,149.000 C 199.770,146.432 200.433,146.667 200.500,144.000" stroke-width="4.030" stroke="#000000" fill="none" stroke-linecap="round"></path><path d="M 200.500,144.000 C 200.901,139.228 201.270,141.432 202.500,139.000" stroke-width="4.053" stroke="#000000" fill="none" stroke-linecap="round"></path><path d="M 202.500,139.000 C 205.830,140.495 204.401,138.728 207.500,143.000" stroke-width="4.286" stroke="#000000" fill="none" stroke-linecap="round"></path><path d="M 207.500,143.000 C 208.000,145.500 208.830,144.995 208.500,148.000" stroke-width="4.148" stroke="#000000" fill="none" stroke-linecap="round"></path><path d="M 208.500,148.000 C 209.270,150.473 209.000,150.500 209.500,153.000" stroke-width="4.103" stroke="#000000" fill="none" stroke-linecap="round"></path><path d="M 209.500,153.000 C 209.230,156.027 209.770,155.973 209.500,159.000" stroke-width="4.168" stroke="#000000" fill="none" stroke-linecap="round"></path><path d="M 216.500,138.000 C 219.500,138.000 219.500,138.000 222.500,138.000" stroke-width="4.415" stroke="#000000" fill="none" stroke-linecap="round"></path><path d="M 222.500,138.000 C 227.985,136.971 225.500,138.000 228.500,138.000" stroke-width="4.212" stroke="#000000" fill="none" stroke-linecap="round"></path><path d="M 228.500,138.000 C 226.390,139.900 228.985,138.971 224.500,142.000" stroke-width="4.337" stroke="#000000" fill="none" stroke-linecap="round"></path><path d="M 224.500,142.000 C 221.572,144.745 221.890,144.900 219.500,148.000" stroke-width="4.016" stroke="#000000" fill="none" stroke-linecap="round"></path><path d="M 219.500,148.000 C 218.500,150.500 218.072,150.245 217.500,153.000" stroke-width="4.048" stroke="#000000" fill="none" stroke-linecap="round"></path><path d="M 217.500,153.000 C 214.413,156.913 216.500,155.500 215.500,158.000" stroke-width="4.238" stroke="#000000" fill="none" stroke-linecap="round"></path><path d="M 215.500,158.000 C 219.109,158.565 216.913,159.413 222.500,158.000" stroke-width="4.358" stroke="#000000" fill="none" stroke-linecap="round"></path><path d="M 222.500,158.000 C 224.932,156.770 225.109,157.565 227.500,156.000" stroke-width="4.016" stroke="#000000" fill="none" stroke-linecap="round"></path><path d="M 227.500,156.000 C 229.973,155.230 229.932,155.270 232.500,155.000" stroke-width="4.058" stroke="#000000" fill="none" stroke-linecap="round"></path><path d="M 232.500,155.000 C 235.500,155.000 235.473,154.730 238.500,155.000" stroke-width="4.308" stroke="#000000" fill="none" stroke-linecap="round"></path><path d="M 260.500,140.000 C 257.693,137.684 257.500,138.500 254.500,137.000" stroke-width="4.345" stroke="#000000" fill="none" stroke-linecap="round"></path><path d="M 254.500,137.000 C 250.385,136.402 250.693,136.184 246.500,137.000" stroke-width="4.000" stroke="#000000" fill="none" stroke-linecap="round"></path><path d="M 246.500,137.000 C 243.695,137.537 243.885,137.402 241.500,139.000" stroke-width="3.919" stroke="#000000" fill="none" stroke-linecap="round"></path><path d="M 241.500,139.000 C 238.394,140.542 239.195,140.537 237.500,143.000" stroke-width="4.151" stroke="#000000" fill="none" stroke-linecap="round"></path><path d="M 237.500,143.000 C 236.194,147.128 236.394,146.042 237.500,150.000" stroke-width="4.187" stroke="#000000" fill="none" stroke-linecap="round"></path><path d="M 237.500,150.000 C 239.679,152.718 238.694,152.628 242.500,154.000" stroke-width="4.181" stroke="#000000" fill="none" stroke-linecap="round"></path><path d="M 242.500,154.000 C 245.692,155.511 245.179,155.218 248.500,155.000" stroke-width="4.067" stroke="#000000" fill="none" stroke-linecap="round"></path><path d="M 248.500,155.000 C 251.355,153.906 251.192,154.511 253.500,152.000" stroke-width="4.118" stroke="#000000" fill="none" stroke-linecap="round"></path><path d="M 253.500,152.000 C 255.870,149.716 255.855,149.906 257.500,147.000" stroke-width="4.160" stroke="#000000" fill="none" stroke-linecap="round"></path><path d="M 257.500,147.000 C 258.500,144.500 258.870,144.716 259.500,142.000" stroke-width="4.208" stroke="#000000" fill="none" stroke-linecap="round"></path><path d="M 259.500,142.000 C 260.464,136.586 260.500,139.500 261.500,137.000" stroke-width="4.302" stroke="#000000" fill="none" stroke-linecap="round"></path><path d="M 261.500,137.000 C 263.302,140.406 262.964,137.586 264.500,144.000" stroke-width="4.347" stroke="#000000" fill="none" stroke-linecap="round"></path><path d="M 264.500,144.000 C 264.770,146.568 265.302,146.406 265.500,149.000" stroke-width="4.022" stroke="#000000" fill="none" stroke-linecap="round"></path></svg>